<?xml version="1.0" encoding="utf-8"?>
<!-- Generator: Adobe Illustrator 23.0.0, SVG Export Plug-In . SVG Version: 6.00 Build 0)  -->
<svg version="1.1" id="Livello_1" xmlns="http://www.w3.org/2000/svg" xmlns:xlink="http://www.w3.org/1999/xlink" x="0px" y="0px"
	 viewBox="0 0 387 160" style="enable-background:new 0 0 387 160;" xml:space="preserve">
<style type="text/css">
	.st0{fill-rule:evenodd;clip-rule:evenodd;fill:#B09677;}
	.st1{fill:#B09677;}
</style>
<path class="st0" d="M359.3,123.7c0,0-114.9,10.8-215.2,7.4C28.6,127.6,0.5,158,0.5,158c2.5,0.4,47.1-25.1,154.1-18.8
	C300.8,138.1,359.3,123.7,359.3,123.7z"/>
<path class="st0" d="M360.9,136.8c-111.7,18.4-212.9,10.8-213.3,12.9C246.2,162.7,332.9,143.1,360.9,136.8z"/>
<path class="st0" d="M237.9,120.2c39.9-75.9,72.2-100.1,72.2-100.1C107.9,31.3,24.2,125,24.2,125s143-94.2,248.8-81.5
	c-19,24.8-35.3,74.3-35.3,74.3L237.9,120.2z"/>
<path class="st1" d="M237.9,120.2c39.9-75.9,72.2-100.1,72.2-100.1C107.9,31.3,24.2,125,24.2,125s143-94.2,248.8-81.5
	c-19,24.8-35.3,74.3-35.3,74.3L237.9,120.2z"/>
<path class="st0" d="M197.1,22.3C174.4,4.7,162.3,5.7,162.3,5.7C97.1,16.2,49.2,87.2,49.2,87.2S145.3,17.3,197.1,22.3z"/>
<path class="st1" d="M197.1,22.3C174.4,4.7,162.3,5.7,162.3,5.7C97.1,16.2,49.2,87.2,49.2,87.2S145.3,17.3,197.1,22.3z"/>
<path class="st0" d="M99.6,2.4c0,0,7.3,5.3-7.5,29.7c13.5-9.5,35.4-24.5,35.4-24.5C117.1-3.3,99.6,2.4,99.6,2.4z"/>
<path class="st1" d="M99.6,2.4c0,0,7.3,5.3-7.5,29.7c13.5-9.5,35.4-24.5,35.4-24.5C117.1-3.3,99.6,2.4,99.6,2.4z"/>
<path class="st0" d="M321.5,27.5c18.1,23.2,19.1,53.5,3,91.1c12-5.3,24.5-6.9,35-7.1c15.1-0.2,26.3-10.2,25.5-16
	C377.5,39.1,321.5,27.5,321.5,27.5z"/>
<path class="st0" d="M322.6,38.7c0,0-3.3,32-47.8,82.5c32.3-13.9,46.2-5.8,46.2-5.8C334.1,93.3,322.6,38.7,322.6,38.7z"/>
</svg>
